<svg width="216" height="63" viewBox="0 0 216 63" fill="none" xmlns="http://www.w3.org/2000/svg">
<path fill-rule="evenodd" clip-rule="evenodd" d="M24.9128 34.2415C23.4665 35.4176 21.9538 36.6172 20.3549 37.8463C14.2062 42.5654 6.71096 45.2242 0 46.7215V63C8.93513 61.2591 19.5682 57.8055 28.4795 50.9647C31.2799 48.8167 33.8153 46.7604 36.1758 44.7782L24.9128 34.2415Z" fill="#F58020"/>
<path fill-rule="evenodd" clip-rule="evenodd" d="M24.9134 28.7574L36.1752 18.2218C33.8141 16.2414 31.2764 14.1845 28.4777 12.0371C19.5688 5.19749 8.93338 1.74093 0 0V16.2785C6.70979 17.7747 14.2051 20.4346 20.3537 25.1538C21.9527 26.3811 23.4665 27.5807 24.9134 28.7574Z" fill="#8FC741"/>
<path fill-rule="evenodd" clip-rule="evenodd" d="M38.9075 21.1294L27.9055 31.4997L38.9075 41.8705C42.8063 38.5004 49.5703 31.7832 49.8733 31.4997C49.5703 31.2184 42.8063 24.5001 38.9075 21.1294Z" fill="#2FABE1"/>
<path fill-rule="evenodd" clip-rule="evenodd" d="M94.9242 62.2722V56.6888C90.4759 61.1808 86.2682 63 78.6943 63C71.1204 63 66.0707 61.1808 62.3443 57.4166C59.2181 54.1394 57.5353 49.4056 57.5353 44.1857C57.5353 33.8678 64.6279 26.4628 78.5743 26.4628H94.6836V22.0926C94.6836 14.324 90.8366 10.5615 81.3392 10.5615C74.6066 10.5615 71.3604 12.1389 67.9947 16.5091L59.9395 8.86174C65.71 2.06452 71.7211 0 81.8199 0C98.5312 0 106.947 7.16258 106.947 21.1212V62.2722H94.9242ZM94.6836 35.0816H80.3771C73.1639 35.0816 69.4369 38.3581 69.4369 43.9421C69.4369 49.5274 72.9238 52.6821 80.6178 52.6821C85.3068 52.6821 88.7931 52.3185 92.0393 49.162C93.8422 47.3422 94.6836 44.4275 94.6836 40.0573V35.0816Z" fill="#161748"/>
<path fill-rule="evenodd" clip-rule="evenodd" d="M113.262 62.2369V52.2744L140.612 25.4156C143.33 22.6709 144.349 20.7947 144.349 17.9053C144.349 13.1414 141.122 9.96431 135.346 9.96431C130.76 9.96431 126.343 11.8406 126.343 17.9053H113.262C113.262 6.78721 122.775 0 135.346 0C148.087 0 157.43 6.78721 157.43 17.9053C157.43 23.8264 154.541 27.1471 149.615 32.0575L129.06 52.2744L160.742 52.122L154.533 62.3199L113.262 62.2369Z" fill="#161748"/>
<path fill-rule="evenodd" clip-rule="evenodd" d="M201.213 62.3199L188.469 41.0551L175.606 62.3199H160.818L181.737 30.4836L161.659 0H176.447L188.469 20.2804L200.371 0H215.159L195.202 30.4836L216 62.3199H201.213Z" fill="#161748"/>
</svg>
