<?xml version="1.0" encoding="UTF-8"?>
<svg id="Layer_1" data-name="Layer 1" xmlns="http://www.w3.org/2000/svg" viewBox="0 0 628.51 153.34">
  <defs>
    <style>
      .cls-1 {
        fill: #fff;
      }
    </style>
  </defs>
  <g>
    <path class="cls-1" d="M169.59,72.96v23.85h-37.22c-7.49,0-15.54-3.67-20.84-8.97l-5.9-5.9c-5.55-5.53-12.99-8.96-20.84-8.97-7.84.02-15.29,3.44-20.84,8.97l-5.9,5.9c-5.3,5.3-13.34,8.97-20.84,8.97H0v-23.85h56.07L16.42,33.3l16.87-16.87,39.66,39.68V0h23.7v56.12l39.66-39.68,16.87,16.87-39.65,39.66h56.06Z"/>
    <path class="cls-1" d="M153.17,136.48l-16.87,16.87-51.58-51.58-51.59,51.58-16.87-16.87,51.6-51.58c4.65-4.67,10.77-7,16.87-7s12.2,2.33,16.87,7l51.58,51.58Z"/>
  </g>
  <g>
    <path class="cls-1" d="M242.18,134.96l-36.96-100.16h25.04l26.23,77.51,26.63-77.51h24.84l-37.16,100.16h-28.62Z"/>
    <path class="cls-1" d="M359.03,137.34c-9.94,0-18.68-2.18-26.23-6.56-7.55-4.37-13.45-10.47-17.69-18.28-4.24-7.82-6.36-16.82-6.36-27.03s2.09-19.67,6.26-27.62c4.17-7.95,10.07-14.17,17.69-18.68,7.62-4.5,16.46-6.76,26.53-6.76s18.31,2.19,25.54,6.56c7.22,4.37,12.85,10.2,16.89,17.49,4.04,7.29,6.06,15.57,6.06,24.84v4.27c0,1.53-.13,3.21-.4,5.07h-81.48v-15.3h57.83c-.27-7.15-2.72-12.85-7.35-17.09-4.64-4.24-10.4-6.36-17.29-6.36-4.9,0-9.41,1.13-13.51,3.38-4.11,2.26-7.35,5.6-9.74,10.04-2.38,4.44-3.58,10.04-3.58,16.79v5.76c0,6.23,1.16,11.56,3.48,16,2.32,4.44,5.47,7.85,9.44,10.23,3.98,2.39,8.55,3.58,13.71,3.58,5.56,0,10.17-1.19,13.81-3.58,3.64-2.39,6.26-5.5,7.85-9.34h24.25c-1.59,6.1-4.54,11.63-8.84,16.59-4.31,4.97-9.57,8.88-15.8,11.73-6.23,2.85-13.25,4.27-21.06,4.27Z"/>
    <path class="cls-1" d="M422.03,134.96V34.8h21.07l1.59,16.69c3.04-5.83,7.42-10.47,13.11-13.91,5.7-3.44,12.45-5.17,20.27-5.17s14.97,1.69,20.67,5.07c5.7,3.38,10.07,8.31,13.11,14.8,3.05,6.49,4.57,14.58,4.57,24.25v58.43h-23.65v-56.04c0-8.61-1.86-15.17-5.57-19.67-3.71-4.5-9.21-6.76-16.49-6.76-4.77,0-9.01,1.16-12.72,3.48-3.71,2.32-6.66,5.6-8.84,9.84-2.18,4.24-3.28,9.47-3.28,15.7v53.46h-23.85Z"/>
    <path class="cls-1" d="M534.11,134.96V34.8h21.06l1.59,16.69c3.05-5.83,7.42-10.47,13.12-13.91,5.69-3.44,12.45-5.17,20.27-5.17s14.97,1.69,20.67,5.07c5.7,3.38,10.07,8.31,13.12,14.8,3.05,6.49,4.57,14.58,4.57,24.25v58.43h-23.65v-56.04c0-8.61-1.86-15.17-5.57-19.67-3.71-4.5-9.21-6.76-16.49-6.76-4.77,0-9.01,1.16-12.72,3.48-3.71,2.32-6.66,5.6-8.84,9.84-2.19,4.24-3.28,9.47-3.28,15.7v53.46h-23.85Z"/>
  </g>
</svg>